<?xml version="1.0" encoding="utf-8"?>
<!-- Generator: Adobe Illustrator 28.0.0, SVG Export Plug-In . SVG Version: 6.00 Build 0)  -->
<svg version="1.1" id="Layer_1" xmlns="http://www.w3.org/2000/svg" xmlns:xlink="http://www.w3.org/1999/xlink" x="0px" y="0px"
	 viewBox="0 0 275 75" style="enable-background:new 0 0 275 75;" xml:space="preserve">
<style type="text/css">
	.st0{fill:#B8CADF;}
	.st1{fill:#2FA5F0;}
	.st2{fill:#3053AD;}
	.st3{fill:none;stroke:#000000;stroke-width:2;stroke-miterlimit:10;}
	.st4{stroke:#000000;stroke-width:0.5;stroke-miterlimit:10;}
</style>
<rect y="79.17" class="st0" width="275" height="75"/>
<g>
	<path class="st1" d="M79.57,47.05l4.72-22.32c0.12-0.44,0.2-0.84,0.72-0.8c1,0.08,2.92,0.12,3.92,0.04
		c0.56-0.04,0.52,0.32,0.4,0.76l-4.44,20.84c-0.28,1.44,2.56,2.84,3.48,2.84c0.36,0,0.56-0.2,0.64-0.56l4.92-23.12
		c0.08-0.44,0.2-0.84,0.72-0.8c1,0.08,2.92,0.12,3.92,0.04c0.56-0.04,0.52,0.32,0.4,0.76l-4.44,20.84
		c-0.28,1.44,2.56,2.84,3.48,2.84c0.36,0,0.56-0.2,0.64-0.56l4.92-23.12c0.08-0.44,0.2-0.84,0.72-0.8c1,0.08,2.92,0.12,3.92,0.04
		c0.56-0.04,0.52,0.32,0.4,0.76l-4.84,22.72c-0.08,0.44-0.36,0.8-0.68,0.96c-0.48,0.24-6.4,4.08-7.32,4.08
		c-0.56,0-2.04-0.88-3.28-1.96c-0.32-0.32-0.56-0.56-0.76-0.56c-0.32,0-4.48,2.52-5.6,2.52S79.13,49.09,79.57,47.05z"/>
	<path class="st1" d="M107.53,46.97l2.08-9.88c0.4-1.84,5.92-6.04,7.4-6.04c1.68,0,6.56,3.8,6.2,5.6l-2.12,9.88
		c-0.36,1.84-5.88,6.04-7.36,6.04C112.05,52.57,107.13,48.77,107.53,46.97z M116.16,47.89l2.2-10.32c0.2-1-2.48-2.52-3.16-2.52
		c-0.32,0-0.56,0.24-0.64,0.68l-2.2,10.32c-0.2,1,2.44,2.52,3.16,2.52C115.8,48.57,116.08,48.33,116.16,47.89z"/>
	<path class="st1" d="M133.8,52.25c-0.92-2.44-1.72-4.64-2.24-6.56c-0.24-0.84-0.68-1.2-1.16-1l-0.6,0.24
		c-0.32,0.12-0.32,0.2-0.4,0.6l-1.24,5.76c-0.08,0.44-0.16,0.84-0.72,0.8c-1-0.08-2.52-0.12-3.52-0.04
		c-0.56,0.04-0.48-0.32-0.4-0.76l3.24-15.2c0.24-1.24,0.16-2-0.52-2.68c-0.2-0.2-0.12-0.44,0.32-0.56c1.36-0.44,2.24-0.84,3.76-1.68
		c0.32-0.16,0.4-0.04,0.6,0.28c0.44,0.64,0.56,1.32,0.8,1.32c0.32,0,1.76-1.64,3.24-1.64c1.76,0,5.2,2.92,5.08,5.84
		c-0.08,2.32-2.6,4.4-4.44,5.72c-0.32,0.2-0.32,0.4-0.24,0.72c0.08,0.28,0.4,1.36,0.72,2.32c0.24,0.76,0.88,2.28,1.96,4.28
		c0.28,0.52-0.08,0.76-0.56,1.08c-1.08,0.72-1.6,0.84-3,1.48C134.12,52.73,133.92,52.57,133.8,52.25z M132.08,41.61
		c1.36-0.48,3.04-2.08,3-3.76c-0.04-2.12-2.04-3.44-2.84-3.44c-0.36,0-0.56,0.24-0.68,0.84l-1.4,6.56c-0.04,0.32,0.08,0.48,0.32,0.4
		L132.08,41.61z"/>
	<path class="st1" d="M140.21,52.01c-0.24,0-0.44-0.2-0.36-0.48c1.36-6.4,2.96-12.8,4.08-19.2c0.08-0.44,0.16-0.8,0.72-0.76
		c0.96,0.08,2.52,0.04,3.52-0.04c0.56-0.04,0.44,0.36,0.4,0.8c-0.76,4.68-1.84,9.88-3.12,14.56c-0.16,0.68-0.68,1.72,0.04,1.72
		c1.88,0,4.12-0.2,6.04-0.32c0.28,0,0.44,0.12,0.16,0.48c-0.68,0.92-1.32,1.88-1.88,2.96c-0.16,0.24-0.32,0.32-0.52,0.32
		C147.52,52.05,142.33,51.93,140.21,52.01z"/>
	<path class="st1" d="M153.25,52.01c-0.36,0-0.52-0.2-0.44-0.56l3.28-15.36c0.24-1.24,0.16-2-0.52-2.68
		c-0.2-0.2-0.12-0.44,0.32-0.56c1.36-0.4,2.24-0.92,3.76-1.68c0.32-0.16,0.4-0.04,0.6,0.28c0.44,0.64,0.56,1.32,0.8,1.32
		c0.32,0,1.36-1.64,3.48-1.64c1.12,0,5.44,3.12,4.8,5.96l-1.88,8.88c-0.36,1.84-5.92,6.04-7.4,6.04H153.25z M161.8,48.45
		c0.28,0,0.56-0.24,0.64-0.68l2.12-10c0.44-2.08-2.2-3.36-3-3.36c-0.36,0-0.56,0.24-0.68,0.84l-2.36,11.08
		c-0.36,1.76-1.16,2.12,0,2.12H161.8z"/>
	<path class="st2" d="M178.96,49.09c-0.32-1.56-0.96-7.48-1.52-7.48c-0.68,0-3.28,6.32-5.44,9.72c-0.28,0.44-0.4,0.68-0.76,0.68
		h-3.72c-0.44,0-0.76-0.16-0.48-0.56c2.6-3.68,9.72-12.88,9.48-15.2c-0.24-2.56-1.52-9.32-3.36-9.32c-0.44,0-0.96,0.08-1.2,0.16
		c-0.36,0.12-0.36-0.04-0.12-0.32c0.84-0.88,4.12-3.16,5.52-3.16c0.88,0,2.04,0.92,2.52,2.72c0.52,2,0.84,6.92,1.48,6.92
		c0.48,0,2.88-5.28,4.72-8.64c0.24-0.44,0.36-0.68,0.72-0.68c0.76,0,2.84,0.04,3.76-0.04c0.44-0.04,0.76,0.2,0.48,0.56
		c-2.68,3.48-9.16,11.44-8.96,13.36c0.44,4.52,1.92,11.4,3.6,11.4c0.44,0,1-0.12,1.28-0.28c0.32-0.2,0.36,0.08,0.08,0.32
		c-1.88,1.56-4.68,3.16-5.68,3.16C180.2,52.41,179.28,50.65,178.96,49.09z"/>
	<path class="st2" d="M187.93,52.05c-0.56,0.04-0.48-0.32-0.4-0.76l3.24-15.2c0.24-1.24,0.16-2-0.52-2.68
		c-0.2-0.2-0.12-0.44,0.32-0.56c1.36-0.44,2.24-0.84,3.76-1.68c0.32-0.16,0.4-0.04,0.6,0.28c0.44,0.64,0.56,1.32,0.8,1.32
		c0.32,0,1.76-1.64,3.48-1.64c1.52,0,5,3.04,4.72,6.36c-0.28,3.24-3.64,5.8-7.08,6.92l-3.08,1c-0.28,0.08-0.4,0.24-0.48,0.64
		l-1.12,5.24c-0.08,0.44-0.16,0.84-0.72,0.8C190.45,52.01,188.92,51.97,187.93,52.05z M195.84,41.97c1.72-0.56,3.2-2.04,3.24-4
		c0.04-2.12-2.04-3.56-2.84-3.56c-0.36,0-0.56,0.24-0.68,0.84l-1.44,6.76c-0.04,0.32,0.08,0.48,0.32,0.4L195.84,41.97z"/>
	<path class="st2" d="M203.57,52.01c-0.24,0-0.44-0.2-0.36-0.48c1.36-6.4,2.96-12.8,4.08-19.2c0.08-0.44,0.16-0.8,0.72-0.76
		c0.96,0.08,2.52,0.04,3.52-0.04c0.56-0.04,0.44,0.36,0.4,0.8c-0.76,4.68-1.84,9.88-3.12,14.56c-0.16,0.68-0.68,1.72,0.04,1.72
		c1.88,0,4.12-0.2,6.04-0.32c0.28,0,0.44,0.12,0.16,0.48c-0.68,0.92-1.32,1.88-1.88,2.96c-0.16,0.24-0.32,0.32-0.52,0.32
		C210.88,52.05,205.68,51.93,203.57,52.01z"/>
	<path class="st2" d="M216.45,46.97l2.08-9.88c0.4-1.84,5.92-6.04,7.4-6.04c1.68,0,6.56,3.8,6.2,5.6L230,46.53
		c-0.36,1.84-5.88,6.04-7.36,6.04C220.96,52.57,216.04,48.77,216.45,46.97z M225.08,47.89l2.2-10.32c0.2-1-2.48-2.52-3.16-2.52
		c-0.32,0-0.56,0.24-0.64,0.68l-2.2,10.32c-0.2,1,2.44,2.52,3.16,2.52C224.72,48.57,225,48.33,225.08,47.89z"/>
	<path class="st2" d="M242.72,52.25c-0.92-2.44-1.72-4.64-2.24-6.56c-0.24-0.84-0.68-1.2-1.16-1l-0.6,0.24
		c-0.32,0.12-0.32,0.2-0.4,0.6l-1.24,5.76c-0.08,0.44-0.16,0.84-0.72,0.8c-1-0.08-2.52-0.12-3.52-0.04
		c-0.56,0.04-0.48-0.32-0.4-0.76l3.24-15.2c0.24-1.24,0.16-2-0.52-2.68c-0.2-0.2-0.12-0.44,0.32-0.56c1.36-0.44,2.24-0.84,3.76-1.68
		c0.32-0.16,0.4-0.04,0.6,0.28c0.44,0.64,0.56,1.32,0.8,1.32c0.32,0,1.76-1.64,3.24-1.64c1.76,0,5.2,2.92,5.08,5.84
		c-0.08,2.32-2.6,4.4-4.44,5.72c-0.32,0.2-0.32,0.4-0.24,0.72c0.08,0.28,0.4,1.36,0.72,2.32c0.24,0.76,0.88,2.28,1.96,4.28
		c0.28,0.52-0.08,0.76-0.56,1.08c-1.08,0.72-1.6,0.84-3,1.48C243.04,52.73,242.84,52.57,242.72,52.25z M241,41.61
		c1.36-0.48,3.04-2.08,3-3.76c-0.04-2.12-2.04-3.44-2.84-3.44c-0.36,0-0.56,0.24-0.68,0.84l-1.4,6.56c-0.04,0.32,0.08,0.48,0.32,0.4
		L241,41.61z"/>
	<path class="st2" d="M249,52.01c-0.24,0-0.44-0.2-0.36-0.48c1.4-6.28,2.2-10.32,3.52-16.52c0.04-0.28,0.16-0.56,0.36-0.72l3.8-2.56
		c0.28-0.16,0.48-0.36,0.8-0.32c0.72,0.08,2.72,0.28,5.32,0.28c0.48,0,1.56-0.08,1.8-0.24c0.28-0.16,0.24,0.08-0.04,0.56
		c-0.44,0.8-0.68,1.28-1.16,2.12c-0.24,0.48-1.28,1.04-2.24,1.04c-0.84,0-1.96,0.04-3.48-0.56c-0.2-0.08-0.4,0-0.44,0.12l-1.12,5.24
		c-0.08,0.32,0.04,0.44,0.56,0.44c0.8,0,2.48-0.16,4.48-0.4c0.24-0.04,0.4,0.12,0.24,0.4l-1.52,2.48c-0.08,0.2-0.28,0.32-0.48,0.32
		c-0.92,0-2.68-0.44-3.6-0.44c-0.16,0-0.28,0.08-0.32,0.28c-0.28,1.28-0.64,2.84-0.96,4c-0.2,0.68-0.6,1.72,0.12,1.72
		c1.88,0,4.76-0.2,6.68-0.32c0.28,0,0.44,0.12,0.2,0.48c-0.72,0.92-1.32,1.72-1.88,2.8c-0.16,0.24-0.32,0.32-0.52,0.32
		C257,52.05,251.12,51.93,249,52.01z"/>
</g>
<g>
	<circle class="st3" cx="42.14" cy="37.37" r="24.3"/>
	<polygon class="st4" points="23.68,49.66 34.89,38.33 37.72,40.99 26.16,52.72 	"/>
	<path class="st4" d="M27.15,53.82l18.66-18.66l10.46,10.37l-2.6,3.03c0,0-3.21-3.41-4.05-3.64l-3.81,3.6c0,0-3.23-3.38-3.9-3.58
		l-3.84,3.53c0,0-1.66-1.84-2.3-1.52c-0.64,0.33-0.39,1.08-0.39,1.08s2.08,2.24,2.64,2.36l3.88-3.51c0,0,3.06,3.3,3.86,3.49
		s3.97-3.53,3.97-3.53s3.02,3.55,3.81,3.53c0.79-0.02,3.88-3.53,3.88-3.53l2.86,2.86c0,0-5.1,8.29-15.37,9.53
		S27.15,53.82,27.15,53.82z"/>
	<rect x="45.09" y="20.88" class="st4" width="1.5" height="13.18"/>
	<polygon class="st4" points="48.32,21.39 48.32,28.41 56.67,24.9 	"/>
	<circle class="st4" cx="30.76" cy="28.11" r="3"/>
	<polygon class="st4" points="25.47,23.83 26.54,24.9 27.58,23.83 26.52,22.76 	"/>
	<rect x="24.05" y="27.15" class="st4" width="1.53" height="1.62"/>
	<polygon class="st4" points="25.47,32.03 26.52,30.99 27.58,32.03 26.52,33.16 	"/>
	<rect x="29.86" y="33.04" class="st4" width="1.59" height="1.5"/>
	<polygon class="st4" points="33.77,32.08 34.86,33.16 35.9,32.08 34.83,30.99 	"/>
	<rect x="35.73" y="27.15" class="st4" width="1.5" height="1.62"/>
	<polygon class="st4" points="33.77,23.83 34.83,24.9 35.9,23.83 34.83,22.76 	"/>
	<rect x="29.86" y="21.34" class="st4" width="1.59" height="1.53"/>
</g>
</svg>
